<svg class="{{ with .class }}{{ . }} {{ end }}icon icon-telegram"  viewBox="0 0 32 32" width="24" height="24" fill="none" xmlns="http://www.w3.org/2000/svg">
	<rect width="32" height="32" rx="8" fill="#e6162d"/>
	<path d="M23.5 18.5c-1.2 2.5-5.2 3.7-8.2 3.7-2.7 0-5.2-.7-6.2-2.2-.7-1.1-.5-2.5.6-3.2.7-.5 1.6-.6 2.3-.2.3.2.7.1.9-.2.2-.3.1-.7-.2-.9-1.2-.7-2.7-.6-3.8.3-1.6 1.2-2 3.4-.8 5 1.4 2 4.5 2.9 7.5 2.9 3.5 0 7.9-1.4 9.3-4.3.2-.3 0-.7-.3-.9-.3-.2-.7 0-.9.3z" fill="#fff"/>
	<circle cx="15" cy="19" r="8" fill="#fff"/>
</svg>